<?xml version="1.0"?>
<svg xmlns="http://www.w3.org/2000/svg" height="512px" viewBox="0 -2 475.312 475" width="512px" class=""><g><path d="m412.855469 88.550781c2.597656-13.984375-1.1875-28.402343-10.316407-39.3125-9.132812-10.910156-22.65625-17.175781-36.882812-17.085937-7.183594.003906-14.269531 1.644531-20.71875 4.800781-16.359375-25.519531-45.738281-39.589844-75.875-36.335937-30.132812 3.253906-55.835938 23.273437-66.367188 51.695312-3.34375 8.898438-5.050781 18.332031-5.039062 27.839844 0 2.71875.160156 5.359375.398438 8h-.398438c-35.347656 0-64 28.652344-64 64s28.652344 64 64 64h208c33.96875.03125 62.039062-26.480469 63.953125-60.394532 1.914063-33.914062-23-63.414062-56.753906-67.207031zm0 0" fill="#3d9ae2" data-original="#3D9AE2" class="" data-old_color="#3d9ae2" style="fill:#4E1EB9"/><path d="m341.65625 432.152344v32h-104v-16c.027344-8.824219 7.175781-15.972656 16-16zm0 0" fill="#00ccb3" data-original="#00CCB3" class="" style="fill:#DDD7CE" data-old_color="#00ccb3"/><path d="m237.65625 448.152344v16h-104v-32h88c8.824219.027344 15.972656 7.175781 16 16zm0 0" fill="#009986" data-original="#009986" class="" style="fill:#8C5AE7" data-old_color="#009986"/><path d="m341.65625 304.152344v128h-88c-8.824219.027344-15.972656 7.175781-16 16v-128c.027344-8.824219 7.175781-15.972656 16-16zm0 0" fill="#d1d3d4" data-original="#D1D3D4" class="" data-old_color="#d1d3d4" style="fill:#6E32F5"/><path d="m237.65625 320.152344v128c-.027344-8.824219-7.175781-15.972656-16-16h-88v-128h88c8.824219.027344 15.972656 7.175781 16 16zm0 0" fill="#e6e7e8" data-original="#E6E7E8" class=""/><path d="m284.855469 120.550781c2.597656-13.984375-1.1875-28.402343-10.316407-39.3125-9.132812-10.910156-22.65625-17.175781-36.882812-17.085937-7.183594.003906-14.269531 1.644531-20.71875 4.800781-3.972656-6.167969-8.761719-11.765625-14.242188-16.640625-23.546874-20.898438-57.164062-26.039062-85.878906-13.121094-28.714844 12.914063-47.175781 41.476563-47.160156 72.960938 0 2.71875.160156 5.359375.398438 8h-.398438c-35.347656 0-64 28.652344-64 64s28.652344 64 64 64h208c22.855469.027344 43.976562-12.179688 55.359375-32 5.695313-9.699219 8.675781-20.75 8.640625-32 .003906-32.5625-24.445312-59.9375-56.800781-63.601563zm0 0" fill="#5aaae7" data-original="#5AAAE7" class="" data-old_color="#5aaae7" style="fill:#8C5AE7"/><path d="m261.65625 328.152344h56v16h-56zm0 0" fill="#c6c5ca" data-original="#C6C5CA" class="" style="fill:#C6C5CA"/><path d="m261.65625 360.152344h56v16h-56zm0 0" fill="#c6c5ca" data-original="#C6C5CA" class="" style="fill:#C6C5CA"/><path d="m261.65625 392.152344h56v16h-56zm0 0" fill="#c6c5ca" data-original="#C6C5CA" class="" style="fill:#C6C5CA"/><path d="m157.65625 328.152344h56v16h-56zm0 0" fill="#c6c5ca" data-original="#C6C5CA" class="" style="fill:#C6C5CA"/><path d="m157.65625 360.152344h56v16h-56zm0 0" fill="#c6c5ca" data-original="#C6C5CA" class="" style="fill:#C6C5CA"/><path d="m157.65625 392.152344h56v16h-56zm0 0" fill="#c6c5ca" data-original="#C6C5CA" class="" style="fill:#C6C5CA"/><g fill="#ffa733"><path d="m419.3125 274.496094-24-24c-3.125-3.121094-8.1875-3.121094-11.3125 0l-24 24 11.3125 11.3125 10.34375-10.34375v60.6875h16v-60.6875l10.34375 10.34375zm0 0" data-original="#FFA733" class="active-path" data-old_color="#FFA733" style="fill:#4E1EB9"/><path d="m381.65625 352.152344h16v16h-16zm0 0" data-original="#FFA733" class="active-path" data-old_color="#FFA733" style="fill:#4E1EB9"/><path d="m381.65625 384.152344h16v16h-16zm0 0" data-original="#FFA733" class="active-path" data-old_color="#FFA733" style="fill:#4E1EB9"/><path d="m475.3125 322.496094-24-24c-3.125-3.121094-8.1875-3.121094-11.3125 0l-24 24 11.3125 11.3125 10.34375-10.34375v60.6875h16v-60.6875l10.34375 10.34375zm0 0" data-original="#FFA733" class="active-path" data-old_color="#FFA733" style="fill:#4E1EB9"/><path d="m437.65625 400.152344h16v16h-16zm0 0" data-original="#FFA733" class="active-path" data-old_color="#FFA733" style="fill:#4E1EB9"/><path d="m437.65625 432.152344h16v16h-16zm0 0" data-original="#FFA733" class="active-path" data-old_color="#FFA733" style="fill:#4E1EB9"/><path d="m80 274.496094-24 24 11.3125 11.3125 10.34375-10.34375v60.6875h16v-60.6875l10.34375 10.34375 11.3125-11.3125-24-24c-3.125-3.121094-8.1875-3.121094-11.3125 0zm0 0" data-original="#FFA733" class="active-path" data-old_color="#FFA733" style="fill:#4E1EB9"/><path d="m77.65625 376.152344h16v16h-16zm0 0" data-original="#FFA733" class="active-path" data-old_color="#FFA733" style="fill:#4E1EB9"/><path d="m77.65625 408.152344h16v16h-16zm0 0" data-original="#FFA733" class="active-path" data-old_color="#FFA733" style="fill:#4E1EB9"/><path d="m24 322.496094-24 24 11.3125 11.3125 10.34375-10.34375v60.6875h16v-60.6875l10.34375 10.34375 11.3125-11.3125-24-24c-3.125-3.121094-8.1875-3.121094-11.3125 0zm0 0" data-original="#FFA733" class="active-path" data-old_color="#FFA733" style="fill:#4E1EB9"/><path d="m21.65625 424.152344h16v16h-16zm0 0" data-original="#FFA733" class="active-path" data-old_color="#FFA733" style="fill:#4E1EB9"/><path d="m21.65625 456.152344h16v16h-16zm0 0" data-original="#FFA733" class="active-path" data-old_color="#FFA733" style="fill:#4E1EB9"/></g></g> </svg>
